<?xml version="1.0" standalone="no"?>
<!DOCTYPE svg PUBLIC "-//W3C//DTD SVG 20010904//EN"
 "http://www.w3.org/TR/2001/REC-SVG-20010904/DTD/svg10.dtd">
<svg version="1.0" xmlns="http://www.w3.org/2000/svg"
 width="446.000000pt" height="329.000000pt" viewBox="0 0 446.000000 329.000000"
 preserveAspectRatio="xMidYMid meet">

<g transform="translate(0.000000,329.000000) scale(0.100000,-0.100000)"
fill="#000000" stroke="none">
<path d="M2130 2325 c-110 -31 -199 -107 -248 -213 -23 -48 -27 -70 -27 -142
1 -75 5 -94 37 -168 20 -46 60 -121 90 -168 65 -105 231 -319 246 -319 14 0
158 183 227 290 111 169 149 274 143 389 -12 228 -245 393 -468 331z m196
-162 c21 -11 53 -39 69 -62 27 -38 30 -51 30 -115 0 -63 -4 -78 -28 -115 -57
-86 -185 -115 -273 -60 -140 86 -130 283 18 358 52 27 126 25 184 -6z"/>
<path d="M2135 2050 c-10 -11 -29 -20 -42 -20 -16 0 -22 -4 -17 -12 4 -6 6
-38 5 -70 -2 -56 -2 -58 23 -58 14 0 26 5 26 10 0 6 40 10 100 10 64 0 100 -4
100 -11 0 -6 10 -9 23 -7 18 2 23 10 25 40 2 20 -2 46 -8 58 -7 13 -7 20 0 20
5 0 10 5 10 10 0 6 -8 10 -18 10 -11 0 -27 9 -37 20 -15 17 -31 20 -95 20 -64
0 -80 -3 -95 -20z m180 -10 c18 -20 17 -20 -84 -20 -99 0 -101 1 -91 20 9 17
21 20 84 20 60 0 76 -3 91 -20z m-175 -60 c12 -8 9 -10 -12 -10 -16 0 -28 5
-28 10 0 13 20 13 40 0z m220 0 c0 -5 -12 -10 -27 -10 -22 0 -25 2 -13 10 20
13 40 13 40 0z m-97 -21 c-21 -6 -45 -6 -65 0 -29 8 -25 9 32 9 57 0 61 -1 33
-9z m74 -31 c-16 -10 -214 -10 -220 0 -3 4 48 7 113 7 65 0 113 -3 107 -7z"/>
<path d="M1705 1783 c-89 -31 -159 -48 -223 -55 -105 -12 -112 -18 -112 -102
0 -27 -6 -48 -15 -56 -20 -16 -20 -92 0 -130 10 -20 31 -34 70 -49 31 -12 57
-21 58 -21 1 0 2 22 3 48 0 56 29 111 69 132 14 7 23 15 21 18 -3 2 -21 -6
-41 -18 -34 -21 -75 -83 -75 -114 0 -48 -74 -13 -89 42 -14 49 -14 50 9 79 14
18 20 41 20 79 l0 52 68 6 c37 3 83 10 102 15 33 8 273 90 277 95 1 1 -1 7 -5
13 -5 7 -47 -3 -137 -34z"/>
<path d="M1765 1731 l-80 -38 45 -6 c112 -15 181 -16 177 -4 -2 7 -28 13 -65
15 -34 2 -62 7 -62 11 0 5 20 16 45 25 25 10 43 22 39 27 -8 13 -11 12 -99
-30z"/>
<path d="M2566 1715 c-3 -9 -6 -18 -6 -20 0 -8 75 -23 194 -40 l119 -18 46
-48 c41 -43 53 -50 101 -57 l55 -7 6 -55 c3 -34 1 -58 -5 -62 -6 -4 -34 -8
-62 -8 l-51 0 -7 40 c-7 47 -56 107 -103 126 -49 21 -53 16 -8 -9 56 -32 85
-79 85 -140 l0 -49 86 3 c70 3 88 7 99 23 10 13 11 24 5 36 -5 10 -8 41 -7 70
2 50 0 54 -42 91 -52 47 -125 71 -277 94 -124 18 -182 29 -205 39 -11 5 -19 1
-23 -9z m446 -131 c63 -32 73 -49 22 -40 -51 10 -91 32 -105 57 -10 19 -9 20
13 14 12 -4 44 -18 70 -31z"/>
<path d="M1590 1532 c-68 -34 -97 -110 -65 -172 24 -47 62 -70 115 -70 137 0
180 185 56 241 -51 23 -62 23 -106 1z m105 -57 c52 -52 13 -145 -60 -145 -28
0 -75 55 -75 87 1 71 86 108 135 58z"/>
<path d="M2723 1535 c-41 -18 -73 -69 -73 -118 0 -138 185 -178 241 -51 16 36
18 50 10 82 -12 43 -42 75 -84 91 -37 14 -55 13 -94 -4z m90 -46 c47 -21 60
-80 27 -122 -26 -33 -63 -41 -99 -23 -55 29 -60 105 -9 140 26 19 48 20 81 5z"/>
<path d="M1795 1380 c-4 -7 52 -10 160 -10 108 0 164 3 160 10 -4 6 -68 10
-160 10 -92 0 -156 -4 -160 -10z"/>
<path d="M2340 1381 c0 -7 42 -11 122 -11 67 0 119 2 117 4 -2 2 -57 7 -121
10 -82 5 -118 4 -118 -3z"/>
<path d="M1130 1014 c-67 -24 -90 -57 -90 -128 0 -36 6 -52 28 -77 24 -27 38
-33 83 -37 45 -3 59 0 82 18 26 21 27 23 10 35 -14 11 -21 11 -37 -1 -50 -34
-113 -4 -123 58 -5 32 -1 41 25 68 34 34 54 37 96 15 26 -14 31 -14 44 -1 12
12 11 16 -11 30 -27 18 -83 29 -107 20z"/>
<path d="M1725 1013 c-63 -18 -103 -87 -85 -152 5 -20 21 -48 35 -61 32 -30
109 -39 153 -16 30 15 32 20 32 71 l0 55 -50 0 c-43 0 -50 -3 -50 -20 0 -16 7
-20 30 -20 25 0 30 -4 30 -24 0 -25 -16 -36 -55 -36 -37 0 -55 10 -70 41 -20
38 -19 61 5 92 26 33 64 42 100 23 25 -12 31 -12 41 0 26 31 -55 64 -116 47z"/>
<path d="M2335 995 c-28 -27 -30 -37 -14 -66 9 -17 6 -25 -15 -44 -50 -46 -20
-115 50 -115 19 0 45 5 56 11 14 8 23 8 31 0 12 -12 57 -15 57 -4 0 4 -9 17
-21 29 -20 21 -20 24 -5 46 9 12 16 26 16 30 0 15 -33 8 -46 -9 -12 -17 -14
-17 -30 -1 -17 17 -17 19 4 41 29 30 28 71 0 91 -32 22 -55 20 -83 -9z m65
-34 c0 -28 -24 -45 -40 -26 -16 20 -6 45 20 45 13 0 20 -7 20 -19z m-15 -111
l28 -29 -26 -10 c-49 -19 -82 15 -51 50 10 11 18 19 19 19 1 0 14 -13 30 -30z"/>
<path d="M2970 1000 c0 -13 7 -20 20 -20 13 0 20 7 20 20 0 13 -7 20 -20 20
-13 0 -20 -7 -20 -20z"/>
<path d="M2550 890 l0 -120 55 0 c105 0 165 46 165 127 0 38 -5 50 -34 79 -33
33 -37 34 -110 34 l-76 0 0 -120z m155 55 c57 -56 4 -143 -81 -133 -29 3 -29
3 -32 81 l-3 77 46 0 c35 0 52 -6 70 -25z"/>
<path d="M1573 945 c-13 -9 -23 -11 -23 -6 0 6 -11 11 -25 11 -25 0 -25 -1
-25 -90 0 -83 1 -90 20 -90 17 0 20 7 20 46 0 37 5 51 31 76 17 17 29 39 27
50 -3 17 -5 18 -25 3z"/>
<path d="M2892 944 c-13 -9 -22 -11 -22 -5 0 6 -11 11 -25 11 -25 0 -25 -1
-25 -90 0 -81 2 -90 19 -90 15 0 19 10 23 50 5 50 29 90 55 90 14 0 18 36 5
44 -5 3 -18 -2 -30 -10z"/>
<path d="M1310 930 c0 -17 7 -20 44 -20 30 0 46 -5 50 -15 4 -12 -3 -15 -35
-15 -59 0 -79 -14 -79 -55 0 -44 19 -54 98 -53 l62 1 0 68 c0 88 -17 109 -90
109 -43 0 -50 -3 -50 -20z m95 -90 c10 -16 -14 -40 -41 -40 -26 0 -38 14 -30
35 6 17 62 20 71 5z"/>
<path d="M1925 940 c-10 -16 6 -32 27 -27 24 7 68 -8 68 -23 0 -5 -20 -10 -43
-10 -68 0 -102 -54 -59 -93 22 -20 73 -22 90 -5 9 9 12 9 12 -1 0 -7 9 -11 23
-9 20 3 22 8 22 69 0 87 -18 109 -86 109 -26 0 -51 -4 -54 -10z m95 -110 c0
-24 -44 -38 -65 -20 -23 19 -6 40 31 40 27 0 34 -4 34 -20z"/>
<path d="M2122 938 c-13 -13 -16 -47 -4 -64 4 -7 24 -19 45 -27 20 -9 37 -20
37 -26 0 -19 -21 -23 -52 -10 -24 10 -31 10 -38 -1 -12 -20 -4 -28 35 -36 104
-19 141 62 49 106 -51 23 -50 45 1 36 36 -7 58 10 34 25 -21 13 -93 11 -107
-3z"/>
<path d="M2970 860 c0 -83 1 -90 20 -90 19 0 20 7 20 90 0 83 -1 90 -20 90
-19 0 -20 -7 -20 -90z"/>
<path d="M3052 942 c2 -4 18 -45 37 -91 44 -108 61 -108 108 2 39 93 40 99 11
95 -16 -2 -27 -18 -43 -63 l-22 -59 -23 62 c-19 53 -26 62 -47 62 -14 0 -23
-4 -21 -8z"/>
<path d="M3275 918 c-22 -26 -26 -39 -21 -67 10 -67 91 -104 142 -67 27 21 6
43 -26 26 -17 -9 -26 -8 -46 5 -39 25 -28 35 41 35 72 0 78 7 50 59 -16 33
-33 41 -80 41 -25 0 -40 -8 -60 -32z m93 -10 c24 -24 13 -38 -28 -38 -26 0
-40 5 -40 13 0 18 21 37 40 37 9 0 21 -5 28 -12z"/>
</g>
</svg>
